<svg width="137" height="70" viewBox="0 0 137 70" fill="none" xmlns="http://www.w3.org/2000/svg">
<g clip-path="url(#clip0)">
<rect width="137" height="70" fill="white"/>
<path d="M7.616 34.976C5.39733 37.8773 4.288 41.0133 4.288 44.384C4.288 48.3947 5.97333 51.5093 9.344 53.728C11.3067 55.0507 13.5253 55.712 16 55.712C18.5173 55.712 20.6933 55.2213 22.528 54.24C25.984 52.448 27.9253 49.44 28.352 45.216C28.3947 44.9173 28.416 44.6187 28.416 44.32C28.416 42.7413 27.968 41.0347 27.072 39.2C26.2187 37.3653 24.8107 35.68 22.848 34.144L11.328 25.056C8.81067 23.0933 7.552 20.5547 7.552 17.44C7.552 14.3253 8.55467 11.7013 10.56 9.568C12.5653 7.392 15.2747 6.304 18.688 6.304C20.3947 6.304 22.2507 6.51733 24.256 6.944H26.816L26.944 14.816H26.304C26.2613 12.768 25.5147 11.168 24.064 10.016C22.656 8.82133 20.864 8.224 18.688 8.224C16.5547 8.224 14.7627 8.94933 13.312 10.4C11.8613 11.808 11.136 13.6427 11.136 15.904C11.136 18.1227 12.0747 19.9787 13.952 21.472L25.792 30.816C30.4853 34.528 32.832 39.008 32.832 44.256C32.832 48.1813 31.2747 51.552 28.16 54.368C25.472 56.8 21.888 58.016 17.408 58.016C14.6773 58.016 12.2453 57.504 10.112 56.48C6.10133 54.6027 3.69067 51.4027 2.88 46.88C2.752 46.1973 2.688 45.344 2.688 44.32C2.688 43.2533 2.98667 41.824 3.584 40.032C4.18133 38.1973 5.33333 36.3627 7.04 34.528L7.616 34.976ZM62.6565 24.096C61.8885 24.9067 61.0138 25.504 60.0325 25.888C64.2138 26.4853 67.3925 27.9787 69.5685 30.368C71.7445 32.7147 72.8325 35.5947 72.8325 39.008C72.8325 43.1467 71.1685 46.496 67.8405 49.056C64.5125 51.616 60.1392 52.896 54.7205 52.896C49.3018 52.896 45.0565 51.5733 41.9845 48.928C38.9125 46.24 37.3765 42.464 37.3765 37.6C37.3765 37.344 37.3765 37.088 37.3765 36.832L38.0805 36.704C38.9338 43.0613 41.5792 47.1787 46.0165 49.056V11.808C45.9312 10.656 45.4832 9.71733 44.6725 8.992C43.9045 8.224 42.9658 7.84 41.8565 7.84H41.0885V7.2H51.8405C55.8512 7.2 59.0512 8.11733 61.4405 9.952C63.8725 11.7867 65.0885 14.1973 65.0885 17.184C65.0885 20.128 64.2778 22.432 62.6565 24.096ZM50.1765 9.248V50.208C51.5845 50.4213 53.2058 50.528 55.0405 50.528C59.1365 50.528 62.3152 49.44 64.5765 47.264C66.8805 45.0453 68.0325 42.1867 68.0325 38.688C68.0325 36.8107 67.6698 35.1467 66.9445 33.696C66.2618 32.2453 65.3872 31.1147 64.3205 30.304C61.5045 28.128 57.5365 27.04 52.4165 27.04C52.3738 27.04 52.3525 27.04 52.3525 27.04L52.2885 26.464C52.3312 26.464 52.3525 26.464 52.3525 26.464C54.5285 26.464 56.3845 25.76 57.9205 24.352C59.4992 22.9013 60.2885 20.6827 60.2885 17.696C60.2885 12.064 57.1952 9.248 51.0085 9.248H50.1765ZM82.9285 5.024C85.7018 3.872 88.3685 3.296 90.9285 3.296C93.0618 3.296 95.2592 4.08533 97.5205 5.664C98.7578 6.51733 100.145 8.18133 101.681 10.656C102.705 12.3627 104.006 15.456 105.585 19.936L113.393 42.08C115.185 47.0293 116.998 50.9547 118.833 53.856C120.71 56.8 122.417 58.9973 123.953 60.448C125.489 61.9413 127.089 62.9867 128.753 63.584C130.417 64.1813 131.782 64.48 132.849 64.48C133.958 64.48 134.939 64.3947 135.793 64.224L135.857 64.864C133.809 65.5467 131.803 65.888 129.841 65.888C127.878 65.888 125.915 65.376 123.953 64.352C121.99 63.3707 120.155 61.984 118.449 60.192C114.779 56.48 111.664 50.8267 109.104 43.232L106.609 35.936H89.0725L84.6565 47.328C84.4432 47.84 84.3365 48.352 84.3365 48.864C84.3365 49.376 84.5498 49.9307 84.9765 50.528C85.4458 51.0827 86.1498 51.36 87.0885 51.36H87.6005V52H74.7365V51.36H75.3125C76.3365 51.36 77.3392 51.0613 78.3205 50.464C79.3018 49.824 80.1125 48.8853 80.7525 47.648L96.6245 9.632C94.3205 6.34666 91.4618 4.704 88.0485 4.704C86.5125 4.704 84.8698 5.024 83.1205 5.664L82.9285 5.024ZM89.7765 34.016H105.969L100.913 19.104C99.9312 16.2453 99.0352 14.0053 98.2245 12.384L89.7765 34.016Z" fill="#102542"/>
</g>
<defs>
<clipPath id="clip0">
<rect width="137" height="70" fill="white"/>
</clipPath>
</defs>
</svg>
